<svg width="211" height="119" viewBox="0 0 211 119" fill="none" xmlns="http://www.w3.org/2000/svg">
<g filter="url(#filter0_d_3_12)">
<circle cx="54" cy="50" r="49" fill="#7A3D1C" stroke="#FDD486" stroke-width="2"/>
<path d="M104.918 24.5938C104.872 24.9355 104.724 25.209 104.474 25.4141C104.223 25.6191 103.938 25.7217 103.619 25.7217C103.574 25.7217 103.494 25.7217 103.38 25.7217C103.266 25.6989 103.004 25.6875 102.594 25.6875C102.161 25.6875 101.603 25.7331 100.919 25.8242C100.258 25.9154 99.5176 26.109 98.6973 26.4053C97.8997 26.6787 97.0566 27.0889 96.168 27.6357C95.3021 28.1826 94.4476 28.9232 93.6045 29.8574C92.7614 30.7689 91.9639 31.9082 91.2119 33.2754C90.46 34.6198 89.8219 36.249 89.2979 38.1631C89.0244 39.1201 88.7054 40.4987 88.3408 42.2988C87.999 44.0762 87.623 46.0814 87.2129 48.3145C86.8255 50.5475 86.4268 52.9287 86.0166 55.458C85.6292 57.9873 85.2533 60.471 84.8887 62.9092C84.5469 65.3473 84.2279 67.6715 83.9316 69.8818C83.6354 72.0693 83.4076 73.9492 83.248 75.5215C83.2025 75.8177 83.0658 76.0798 82.8379 76.3076C82.6328 76.5583 82.3708 76.6836 82.0518 76.6836C81.7327 76.6836 81.4479 76.6038 81.1973 76.4443C80.9694 76.2848 80.8099 76.0456 80.7188 75.7266C80.4225 74.6328 79.9554 73.1175 79.3174 71.1807C78.6794 69.2438 77.9388 67.0677 77.0957 64.6523C76.2754 62.2142 75.3753 59.6279 74.3955 56.8936C73.4157 54.1592 72.4359 51.459 71.4561 48.793C70.499 46.1042 69.5648 43.5407 68.6533 41.1025C67.7646 38.6416 66.9785 36.4769 66.2949 34.6084C66.181 35.8844 65.9987 37.3086 65.748 38.8809C65.5202 40.4303 65.2012 42.1051 64.791 43.9053C64.4036 45.6826 63.9137 47.5739 63.3213 49.5791C62.7288 51.5615 62.0225 53.6237 61.2021 55.7656C59.9261 59.0469 58.4222 61.8496 56.6904 64.1738C54.9814 66.498 53.1813 68.4349 51.29 69.9844C49.3988 71.5339 47.4733 72.7643 45.5137 73.6758C43.5768 74.5645 41.7539 75.2367 40.0449 75.6924C38.3359 76.1481 36.7979 76.4329 35.4307 76.5469C34.0635 76.6836 33.0153 76.752 32.2861 76.752C29.7796 76.752 27.4668 76.4215 25.3477 75.7607C23.2513 75.0999 21.4284 74.1657 19.8789 72.958C18.3522 71.7275 17.1559 70.2692 16.29 68.583C15.4469 66.874 15.0254 64.9941 15.0254 62.9434C15.0254 61.0977 15.4355 59.3773 16.2559 57.7822C17.099 56.1644 18.2155 54.763 19.6055 53.5781C21.0182 52.3932 22.6247 51.459 24.4248 50.7754C26.2477 50.0918 28.139 49.75 30.0986 49.75C31.7165 49.75 33.1634 49.9095 34.4395 50.2285C35.7383 50.5475 36.8776 50.9577 37.8574 51.459C38.86 51.9375 39.7145 52.4616 40.4209 53.0312C41.1501 53.6009 41.7425 54.1478 42.1982 54.6719C42.6768 55.1732 43.0299 55.6061 43.2578 55.9707C43.5085 56.3353 43.6566 56.5518 43.7021 56.6201C43.7933 56.8024 43.8389 57.0075 43.8389 57.2354C43.8389 57.5544 43.7135 57.8506 43.4629 58.124C43.235 58.3975 42.9274 58.5342 42.54 58.5342C42.0387 58.5342 41.6628 58.3063 41.4121 57.8506C41.3893 57.7822 41.1615 57.4632 40.7285 56.8936C40.3184 56.3011 39.6689 55.6631 38.7803 54.9795C37.9144 54.2959 36.7865 53.6807 35.3965 53.1338C34.0065 52.5641 32.3203 52.2793 30.3379 52.2793C28.7201 52.2793 27.1364 52.5527 25.5869 53.0996C24.0602 53.6465 22.7044 54.3984 21.5195 55.3555C20.3346 56.3125 19.3776 57.4518 18.6484 58.7734C17.9421 60.0723 17.5889 61.485 17.5889 63.0117C17.5889 64.6751 17.9762 66.2018 18.751 67.5918C19.5257 68.959 20.5739 70.1325 21.8955 71.1123C23.2399 72.0921 24.7894 72.8555 26.5439 73.4023C28.3213 73.9264 30.2126 74.1885 32.2178 74.1885C32.9925 74.1885 34.0179 74.1315 35.2939 74.0176C36.57 73.9036 37.9941 73.6416 39.5664 73.2314C41.1615 72.8213 42.8363 72.2061 44.5908 71.3857C46.3454 70.5426 48.0771 69.4033 49.7861 67.9678C51.4951 66.5322 53.1243 64.7435 54.6738 62.6016C56.2461 60.4596 57.6247 57.862 58.8096 54.8086C60.04 51.6641 60.9971 48.679 61.6807 45.8535C62.387 43.0052 62.9111 40.4417 63.2529 38.1631C63.5947 35.8844 63.7998 33.9476 63.8682 32.3525C63.9593 30.7347 64.0049 29.584 64.0049 28.9004V28.2168C64.0049 27.8522 64.1188 27.5446 64.3467 27.2939C64.5973 27.0205 64.9163 26.8838 65.3037 26.8838C65.8734 26.8838 66.2721 27.1686 66.5 27.7383C66.5684 27.8978 66.762 28.4333 67.0811 29.3447C67.4229 30.2562 67.8558 31.4411 68.3799 32.8994C68.9268 34.335 69.542 35.9984 70.2256 37.8896C70.932 39.7809 71.6725 41.7975 72.4473 43.9395C73.222 46.0586 74.0195 48.2575 74.8398 50.5361C75.6602 52.8148 76.4577 55.0592 77.2324 57.2695C78.0299 59.4798 78.7819 61.6104 79.4883 63.6611C80.1947 65.7119 80.8327 67.5804 81.4023 69.2666C81.653 67.4437 81.9264 65.5182 82.2227 63.4902C82.5189 61.4395 82.8265 59.3773 83.1455 57.3037C83.4873 55.2074 83.8177 53.1566 84.1367 51.1514C84.4785 49.1462 84.8089 47.2663 85.1279 45.5117C85.4697 43.7572 85.7773 42.1849 86.0508 40.7949C86.3242 39.4049 86.5749 38.2884 86.8027 37.4453C87.304 35.4401 88.0218 33.5716 88.9561 31.8398C89.8903 30.0853 91.0182 28.5586 92.3398 27.2598C93.6842 25.9609 95.2109 24.9469 96.9199 24.2178C98.6517 23.4658 100.566 23.0898 102.662 23.0898C103.46 23.0898 104.029 23.181 104.371 23.3633C104.736 23.5456 104.918 23.8988 104.918 24.4229V24.5938ZM98.3555 72.2402C98.834 72.901 99.4492 73.4365 100.201 73.8467C100.953 74.234 101.876 74.4277 102.97 74.4277C104.086 74.4277 105.1 74.1657 106.012 73.6416C106.923 73.0947 107.755 72.3883 108.507 71.5225C109.259 70.6566 109.931 69.6882 110.523 68.6172C111.116 67.5462 111.651 66.4753 112.13 65.4043C112.244 65.1536 112.403 64.9714 112.608 64.8574C112.813 64.7207 113.041 64.6523 113.292 64.6523C113.679 64.6523 113.987 64.7891 114.215 65.0625C114.465 65.3359 114.591 65.6322 114.591 65.9512C114.591 66.0651 114.579 66.1676 114.557 66.2588C114.534 66.3271 114.5 66.4069 114.454 66.498C112.882 69.9616 111.161 72.5706 109.293 74.3252C107.447 76.0798 105.351 76.9798 103.004 77.0254C101.5 77.0254 100.201 76.7292 99.1074 76.1367C98.0137 75.5671 97.1136 74.8265 96.4072 73.915C95.7008 72.9808 95.1768 71.9326 94.835 70.7705C94.4932 69.6084 94.3223 68.4463 94.3223 67.2842C94.3223 66.1221 94.459 65.0511 94.7324 64.0713C95.0286 63.0915 95.4388 62.237 95.9629 61.5078C96.5098 60.7786 97.1478 60.209 97.877 59.7988C98.6289 59.3887 99.4492 59.1836 100.338 59.1836C100.862 59.1836 101.375 59.2975 101.876 59.5254C102.4 59.7305 102.867 60.0381 103.277 60.4482C103.688 60.8356 104.018 61.3141 104.269 61.8838C104.519 62.4535 104.645 63.1029 104.645 63.832C104.645 64.7663 104.485 65.6436 104.166 66.4639C103.847 67.2842 103.403 68.0475 102.833 68.7539C102.286 69.4603 101.625 70.1097 100.851 70.7021C100.076 71.2946 99.2441 71.8073 98.3555 72.2402ZM97.3301 70.0186C98.0365 69.7223 98.6745 69.3464 99.2441 68.8906C99.8366 68.4349 100.338 67.9336 100.748 67.3867C101.158 66.8398 101.477 66.2702 101.705 65.6777C101.933 65.0625 102.047 64.4473 102.047 63.832C102.047 63.1484 101.876 62.6357 101.534 62.2939C101.192 61.9294 100.794 61.7471 100.338 61.7471C99.7227 61.7471 99.1986 61.918 98.7656 62.2598C98.3327 62.6016 97.9795 63.0459 97.7061 63.5928C97.4326 64.1396 97.2275 64.7549 97.0908 65.4385C96.9769 66.0993 96.9199 66.7601 96.9199 67.4209C96.9199 67.8311 96.9541 68.264 97.0225 68.7197C97.1136 69.1755 97.2161 69.6084 97.3301 70.0186ZM138.585 66.4639C138.494 66.6462 138.3 67.0335 138.004 67.626C137.73 68.1956 137.366 68.8564 136.91 69.6084C136.477 70.3604 135.965 71.1465 135.372 71.9668C134.78 72.7871 134.119 73.5391 133.39 74.2227C132.66 74.9062 131.874 75.4759 131.031 75.9316C130.188 76.3646 129.299 76.5811 128.365 76.5811C127.044 76.5811 125.927 76.1595 125.016 75.3164C124.127 74.4733 123.478 73.4137 123.067 72.1377C122.293 73.4365 121.37 74.4733 120.299 75.248C119.228 76 118.157 76.376 117.086 76.376C116.243 76.376 115.479 76.2279 114.796 75.9316C114.112 75.6126 113.531 75.1797 113.053 74.6328C112.574 74.0632 112.198 73.4023 111.925 72.6504C111.674 71.8984 111.549 71.0781 111.549 70.1895C111.549 68.4121 111.845 66.8512 112.438 65.5068C113.053 64.1396 113.827 63.0003 114.762 62.0889C115.696 61.1774 116.721 60.4938 117.838 60.0381C118.977 59.5824 120.071 59.3545 121.119 59.3545C121.826 59.3545 122.475 59.457 123.067 59.6621C123.66 59.8444 124.161 60.0495 124.571 60.2773C125.004 60.5052 125.335 60.7217 125.562 60.9268C125.79 61.109 125.916 61.2116 125.938 61.2344C126.189 61.5306 126.314 61.8382 126.314 62.1572C126.314 62.499 126.189 62.8066 125.938 63.0801C125.688 63.3307 125.392 63.4561 125.05 63.4561C124.685 63.4561 124.378 63.3307 124.127 63.0801C124.081 63.0345 123.979 62.9548 123.819 62.8408C123.66 62.7041 123.443 62.5674 123.17 62.4307C122.896 62.2939 122.566 62.18 122.179 62.0889C121.814 61.9749 121.393 61.918 120.914 61.918C120.208 61.918 119.456 62.0775 118.658 62.3965C117.861 62.7155 117.132 63.2168 116.471 63.9004C115.81 64.5612 115.252 65.4043 114.796 66.4297C114.363 67.4323 114.146 68.6286 114.146 70.0186C114.146 70.4515 114.192 70.8958 114.283 71.3516C114.374 71.7845 114.534 72.1833 114.762 72.5479C114.99 72.9124 115.297 73.2087 115.685 73.4365C116.072 73.6644 116.55 73.7783 117.12 73.7783C117.53 73.7783 117.997 73.6416 118.521 73.3682C119.068 73.0947 119.581 72.6732 120.06 72.1035C120.561 71.5339 121.005 70.8161 121.393 69.9502C121.803 69.0843 122.088 68.0589 122.247 66.874C122.293 66.555 122.441 66.293 122.691 66.0879C122.942 65.86 123.238 65.7461 123.58 65.7461C123.899 65.7461 124.173 65.8714 124.4 66.1221C124.651 66.3727 124.788 66.6576 124.811 66.9766C124.833 67.4095 124.879 68.0247 124.947 68.8223C125.016 69.597 125.164 70.3717 125.392 71.1465C125.642 71.9212 126.007 72.5934 126.485 73.1631C126.964 73.7327 127.625 74.0176 128.468 74.0176C129.015 74.0176 129.55 73.8695 130.074 73.5732C130.621 73.277 131.145 72.8896 131.646 72.4111C132.171 71.9098 132.66 71.3516 133.116 70.7363C133.595 70.0983 134.028 69.4603 134.415 68.8223C134.802 68.1842 135.144 67.569 135.44 66.9766C135.737 66.3841 135.987 65.8714 136.192 65.4385C136.306 65.1878 136.466 64.9941 136.671 64.8574C136.899 64.7207 137.138 64.6523 137.389 64.6523C137.776 64.6523 138.084 64.8005 138.312 65.0967C138.562 65.3701 138.688 65.6663 138.688 65.9854C138.688 66.1449 138.653 66.3044 138.585 66.4639ZM153.761 66.4639C153.761 68.5602 153.385 70.349 152.633 71.8301C151.881 73.3112 150.958 74.4391 149.864 75.2139H150.001C151.345 75.2139 152.564 74.9176 153.658 74.3252C154.775 73.71 155.777 72.9352 156.666 72.001C157.555 71.0439 158.352 69.9844 159.059 68.8223C159.765 67.6602 160.392 66.5322 160.938 65.4385C161.052 65.1878 161.212 64.9941 161.417 64.8574C161.645 64.7207 161.884 64.6523 162.135 64.6523C162.522 64.6523 162.83 64.7891 163.058 65.0625C163.285 65.3359 163.399 65.6322 163.399 65.9512C163.399 66.1335 163.365 66.3044 163.297 66.4639C162.704 67.7855 161.998 69.1185 161.178 70.4629C160.357 71.7845 159.4 72.9808 158.307 74.0518C157.213 75.1227 155.982 75.9886 154.615 76.6494C153.248 77.333 151.733 77.6748 150.069 77.6748C148.862 77.6748 147.688 77.4811 146.549 77.0938C145.41 76.7292 144.407 76.1481 143.541 75.3506C143.222 75.0999 142.949 74.8379 142.721 74.5645C142.493 74.2682 142.311 73.9948 142.174 73.7441C142.128 73.6986 142.105 73.653 142.105 73.6074C141.969 73.4023 141.9 73.1859 141.9 72.958C141.9 72.6618 142.003 72.3883 142.208 72.1377C142.231 72.0921 142.254 72.0693 142.276 72.0693C142.299 72.0465 142.322 72.0238 142.345 72.001C142.573 71.7959 142.823 71.682 143.097 71.6592H143.199C143.313 71.6592 143.393 71.6706 143.438 71.6934C143.461 71.6934 143.473 71.7048 143.473 71.7275C143.495 71.7275 143.518 71.7275 143.541 71.7275C143.609 71.7275 143.689 71.7503 143.78 71.7959C143.803 71.8187 143.826 71.8301 143.849 71.8301C144.054 71.9668 144.225 72.1377 144.361 72.3428C144.521 72.6162 144.703 72.8669 144.908 73.0947C145.09 73.277 145.307 73.4479 145.558 73.6074C145.808 73.7441 146.093 73.8125 146.412 73.8125C146.982 73.8125 147.551 73.6416 148.121 73.2998C148.691 72.958 149.203 72.4681 149.659 71.8301C150.115 71.1921 150.479 70.4173 150.753 69.5059C151.049 68.5944 151.197 67.5804 151.197 66.4639C151.197 65.6436 151.106 64.9486 150.924 64.3789C150.764 63.7865 150.548 63.3079 150.274 62.9434C150.024 62.5788 149.75 62.3167 149.454 62.1572C149.158 61.9749 148.873 61.8838 148.6 61.8838C147.984 61.8838 147.358 62.2028 146.72 62.8408C146.104 63.4788 145.489 64.2878 144.874 65.2676C144.259 66.2474 143.644 67.3298 143.028 68.5146C142.436 69.6995 141.832 70.8503 141.217 71.9668C141.171 75.6582 141.103 79.1787 141.012 82.5283C140.943 85.8779 140.807 88.9883 140.602 91.8594C140.419 94.7305 140.157 97.3281 139.815 99.6523C139.474 101.977 139.007 103.959 138.414 105.6C137.822 107.263 137.092 108.539 136.227 109.428C135.361 110.316 134.301 110.761 133.048 110.761C132.66 110.761 132.216 110.681 131.715 110.521C131.214 110.362 130.746 110.032 130.313 109.53C129.881 109.052 129.516 108.357 129.22 107.445C128.924 106.534 128.775 105.315 128.775 103.788C128.775 101.851 129.015 99.6068 129.493 97.0547C129.972 94.5026 130.655 91.791 131.544 88.9199C132.41 86.0716 133.447 83.1436 134.654 80.1357C135.862 77.1279 137.195 74.1999 138.653 71.3516C138.653 70.554 138.653 69.7679 138.653 68.9932C138.676 68.2184 138.688 67.4665 138.688 66.7373C138.391 67.0791 138.038 67.25 137.628 67.25C137.241 67.25 136.933 67.1133 136.705 66.8398C136.477 66.5664 136.363 66.2702 136.363 65.9512C136.363 65.7917 136.397 65.6208 136.466 65.4385C137.013 64.1852 137.434 63.0003 137.73 61.8838C138.027 60.7445 138.243 59.7533 138.38 58.9102C138.539 58.0443 138.631 57.3607 138.653 56.8594C138.676 56.3581 138.688 56.096 138.688 56.0732C138.688 55.7314 138.813 55.4352 139.063 55.1846C139.314 54.9339 139.622 54.8086 139.986 54.8086C140.328 54.8086 140.624 54.9339 140.875 55.1846C141.126 55.4124 141.251 55.7087 141.251 56.0732V66.5664C141.775 65.6777 142.299 64.8005 142.823 63.9346C143.347 63.0687 143.894 62.2939 144.464 61.6104C145.056 60.9268 145.683 60.3799 146.344 59.9697C147.027 59.5368 147.779 59.3203 148.6 59.3203C149.374 59.3203 150.081 59.5026 150.719 59.8672C151.357 60.2318 151.904 60.7331 152.359 61.3711C152.815 62.0091 153.157 62.7725 153.385 63.6611C153.635 64.527 153.761 65.4613 153.761 66.4639ZM138.585 77.4355C137.468 79.9421 136.454 82.46 135.543 84.9893C134.654 87.5186 133.902 89.9567 133.287 92.3037C132.649 94.6507 132.159 96.8496 131.817 98.9004C131.476 100.951 131.305 102.751 131.305 104.301C131.305 104.688 131.327 105.11 131.373 105.565C131.419 106.021 131.51 106.443 131.646 106.83C131.783 107.217 131.977 107.536 132.228 107.787C132.478 108.061 132.809 108.197 133.219 108.197C133.971 108.197 134.62 107.719 135.167 106.762C135.714 105.827 136.17 104.551 136.534 102.934C136.922 101.339 137.241 99.4928 137.491 97.3965C137.742 95.3229 137.936 93.1468 138.072 90.8682C138.232 88.5895 138.346 86.2881 138.414 83.9639C138.482 81.6624 138.539 79.4863 138.585 77.4355ZM176.729 72.2402C176.16 72.2402 175.659 72.1947 175.226 72.1035C174.884 72.7871 174.474 73.4251 173.995 74.0176C173.517 74.5872 172.958 75.0885 172.32 75.5215C171.705 75.9544 171.01 76.2962 170.235 76.5469C169.461 76.7975 168.618 76.9229 167.706 76.9229C166.635 76.9229 165.655 76.7292 164.767 76.3418C163.878 75.9772 163.103 75.4645 162.442 74.8037C161.782 74.1201 161.269 73.3112 160.904 72.377C160.54 71.4199 160.357 70.3717 160.357 69.2324C160.357 67.7741 160.619 66.5094 161.144 65.4385C161.668 64.3447 162.271 63.4447 162.955 62.7383C163.639 62.0091 164.322 61.4736 165.006 61.1318C165.689 60.7673 166.202 60.585 166.544 60.585C166.931 60.585 167.216 60.6875 167.398 60.8926C167.604 61.0977 167.706 61.3711 167.706 61.7129C167.706 62.1003 167.581 62.3965 167.33 62.6016C167.102 62.7839 166.806 62.9661 166.441 63.1484C166.077 63.3307 165.689 63.5928 165.279 63.9346C164.869 64.2536 164.482 64.6637 164.117 65.165C163.775 65.6663 163.491 66.2588 163.263 66.9424C163.035 67.626 162.921 68.3893 162.921 69.2324C162.921 69.9844 163.035 70.6908 163.263 71.3516C163.491 71.9896 163.821 72.5479 164.254 73.0264C164.687 73.4821 165.2 73.8467 165.792 74.1201C166.384 74.3708 167.045 74.4961 167.774 74.4961C169.073 74.4961 170.144 74.1999 170.987 73.6074C171.853 72.9922 172.514 72.2174 172.97 71.2832C171.625 70.5768 170.52 69.5742 169.654 68.2754C168.788 66.9766 168.355 65.5182 168.355 63.9004C168.355 62.6016 168.663 61.542 169.278 60.7217C169.916 59.9014 170.748 59.4912 171.773 59.4912C172.389 59.4912 172.97 59.6393 173.517 59.9355C174.063 60.2318 174.542 60.6989 174.952 61.3369C175.385 61.9749 175.727 62.7952 175.978 63.7979C176.228 64.8005 176.354 65.9967 176.354 67.3867C176.354 68.1159 176.262 68.8792 176.08 69.6768C176.217 69.6995 176.354 69.7109 176.49 69.7109C176.627 69.7109 176.775 69.7109 176.935 69.7109C177.709 69.7109 178.404 69.6198 179.02 69.4375C179.635 69.2552 180.193 68.9818 180.694 68.6172C181.196 68.2526 181.64 67.7855 182.027 67.2158C182.438 66.6462 182.825 65.9854 183.189 65.2334C183.258 65.0967 183.406 64.9714 183.634 64.8574C183.862 64.7207 184.09 64.6523 184.317 64.6523C184.614 64.6523 184.887 64.7777 185.138 65.0283C185.411 65.2562 185.548 65.5638 185.548 65.9512C185.548 66.1335 185.502 66.3385 185.411 66.5664C185.32 66.7715 185.229 66.9652 185.138 67.1475C184.75 67.8311 184.295 68.4919 183.771 69.1299C183.269 69.7451 182.665 70.292 181.959 70.7705C181.275 71.2262 180.501 71.5908 179.635 71.8643C178.769 72.1377 177.8 72.263 176.729 72.2402ZM170.885 63.627C170.885 64.0599 170.942 64.5156 171.056 64.9941C171.17 65.4727 171.34 65.9512 171.568 66.4297C171.819 66.8854 172.115 67.3298 172.457 67.7627C172.822 68.1729 173.243 68.526 173.722 68.8223C173.79 68.3438 173.824 67.8766 173.824 67.4209C173.824 66.8057 173.779 66.179 173.688 65.541C173.596 64.903 173.46 64.3219 173.277 63.7979C173.118 63.251 172.913 62.818 172.662 62.499C172.411 62.1572 172.115 61.9863 171.773 61.9863C171.637 61.9863 171.454 62.0889 171.227 62.2939C170.999 62.499 170.885 62.9434 170.885 63.627ZM202.569 66.5322C202.319 67.0563 202 67.6829 201.612 68.4121C201.248 69.1185 200.826 69.859 200.348 70.6338C199.869 71.4085 199.334 72.1833 198.741 72.958C198.149 73.71 197.499 74.3936 196.793 75.0088C196.109 75.6012 195.369 76.0798 194.571 76.4443C193.797 76.8317 192.965 77.0254 192.076 77.0254C190.709 77.0254 189.535 76.6038 188.556 75.7607C187.576 74.9176 186.744 73.8125 186.061 72.4453C185.377 71.0781 184.819 69.5286 184.386 67.7969C183.976 66.0423 183.657 64.265 183.429 62.4648C183.201 60.6419 183.041 58.876 182.95 57.167C182.882 55.458 182.848 53.9427 182.848 52.6211C182.848 50.707 182.905 48.7246 183.019 46.6738C183.155 44.623 183.36 42.6178 183.634 40.6582C183.907 38.6986 184.249 36.8415 184.659 35.0869C185.092 33.3324 185.593 31.7943 186.163 30.4727C186.756 29.151 187.428 28.1029 188.18 27.3281C188.932 26.5534 189.786 26.166 190.743 26.166C191.495 26.166 192.167 26.3483 192.76 26.7129C193.375 27.0547 193.888 27.6243 194.298 28.4219C194.708 29.2194 195.027 30.2562 195.255 31.5322C195.483 32.8083 195.597 34.3691 195.597 36.2148C195.597 38.4935 195.357 40.8519 194.879 43.29C194.4 45.7054 193.751 48.1436 192.931 50.6045C192.11 53.0654 191.142 55.5264 190.025 57.9873C188.909 60.4255 187.713 62.8066 186.437 65.1309C187.006 68.0247 187.77 70.3034 188.727 71.9668C189.684 73.6074 190.834 74.4277 192.179 74.4277C193.09 74.4277 193.967 74.0745 194.811 73.3682C195.654 72.639 196.428 71.7845 197.135 70.8047C197.841 69.8249 198.456 68.8337 198.98 67.8311C199.527 66.8057 199.949 65.9854 200.245 65.3701C200.359 65.1423 200.519 64.9714 200.724 64.8574C200.929 64.7207 201.157 64.6523 201.407 64.6523C201.795 64.6523 202.102 64.7891 202.33 65.0625C202.581 65.3359 202.706 65.6436 202.706 65.9854C202.706 66.1221 202.66 66.3044 202.569 66.5322ZM185.445 52.792C185.445 54.2503 185.479 55.6517 185.548 56.9961C185.616 58.3405 185.707 59.6279 185.821 60.8584C186.778 59.0127 187.69 57.0531 188.556 54.9795C189.422 52.8831 190.185 50.7754 190.846 48.6562C191.507 46.5143 192.031 44.3952 192.418 42.2988C192.828 40.1797 193.033 38.1631 193.033 36.249C193.033 33.5602 192.817 31.6348 192.384 30.4727C191.951 29.3105 191.37 28.7295 190.641 28.7295C190.162 28.7295 189.695 29.0599 189.239 29.7207C188.806 30.3815 188.396 31.2816 188.009 32.4209C187.621 33.5602 187.268 34.9046 186.949 36.4541C186.63 38.0036 186.357 39.667 186.129 41.4443C185.924 43.2217 185.753 45.0788 185.616 47.0156C185.502 48.9525 185.445 50.8779 185.445 52.792Z" fill="#FDD486"/>
</g>
<defs>
<filter id="filter0_d_3_12" x="0" y="0" width="206.706" height="118.761" filterUnits="userSpaceOnUse" color-interpolation-filters="sRGB">
<feFlood flood-opacity="0" result="BackgroundImageFix"/>
<feColorMatrix in="SourceAlpha" type="matrix" values="0 0 0 0 0 0 0 0 0 0 0 0 0 0 0 0 0 0 127 0" result="hardAlpha"/>
<feOffset dy="4"/>
<feGaussianBlur stdDeviation="2"/>
<feComposite in2="hardAlpha" operator="out"/>
<feColorMatrix type="matrix" values="0 0 0 0 0 0 0 0 0 0 0 0 0 0 0 0 0 0 0.25 0"/>
<feBlend mode="normal" in2="BackgroundImageFix" result="effect1_dropShadow_3_12"/>
<feBlend mode="normal" in="SourceGraphic" in2="effect1_dropShadow_3_12" result="shape"/>
</filter>
</defs>
</svg>
